<svg width="32" height="32" viewBox="0 0 32 32" fill="none" xmlns="http://www.w3.org/2000/svg">
<path d="M16 32C24.8366 32 32 24.8366 32 16C32 7.16344 24.8366 0 16 0C7.16344 0 0 7.16344 0 16C0 24.8366 7.16344 32 16 32Z" fill="#12161C"/>
<path d="M10.0329 15.9999L7.58487 18.4649L5.11987 15.9999L7.58487 13.5349L10.0329 15.9999ZM15.9999 10.0329L20.2159 14.2489L22.6809 11.7839L18.4649 7.58487L15.9999 5.11987L13.5349 7.58487L9.33587 11.7839L11.8009 14.2489L15.9999 10.0329ZM24.4149 13.5349L21.9669 15.9999L24.4319 18.4649L26.8799 15.9999L24.4149 13.5349ZM15.9999 21.9669L11.7839 17.7509L9.33587 20.2159L13.5519 24.4319L15.9999 26.8799L18.4649 24.4149L22.6809 20.1989L20.2159 17.7509L15.9999 21.9669ZM15.9999 18.4649L18.4649 15.9999L15.9999 13.5349L13.5349 15.9999L15.9999 18.4649Z" fill="#F0B90B"/>
</svg>
