<svg width="32" height="32" viewBox="0 0 32 32" fill="none" xmlns="http://www.w3.org/2000/svg">
<circle cx="16" cy="16" r="16" fill="#102331"/>
<path d="M8.56767 21.8757C9.25932 22.6153 13.0583 26.1599 19.0212 22.0461C23.333 18.6556 23.2253 11.3049 22.8111 9.0851C22.6668 9.40819 17.6585 20.4821 8.56767 21.8757ZM22.8105 9.08323C22.7576 9.06121 17.2103 8.29756 11.7263 11.8639C8.32094 14.0786 7.87084 17.3199 8.0262 19.4798C15.9983 18.5789 22.6297 9.33724 22.8105 9.08323Z" fill="#97C554"/>
<path d="M23 9.07942C22.9464 9.05841 17.3282 8.32972 11.774 11.7328C8.32505 13.8461 7.86918 16.939 8.02653 19C16.1006 18.1404 22.8169 9.3218 23 9.07942Z" fill="#709B30"/>
</svg>
