<svg width="372" height="54" viewBox="0 0 372 54" fill="none" xmlns="http://www.w3.org/2000/svg">
<path fill-rule="evenodd" clip-rule="evenodd" d="M27 18C31.9706 18 36 13.9706 36 9C36 13.9706 40.0294 18 45 18C40.0294 18 36 22.0294 36 27C36 22.0294 31.9706 18 27 18ZM18 27C18 22.0294 22.0294 18 27 18C22.0294 18 18 13.9706 18 9C18 4.02944 22.0294 0 27 0C31.9706 0 36 4.02944 36 9C36 4.02944 40.0294 0 45 0C49.9706 0 54 4.02944 54 9C54 13.9706 49.9706 18 45 18C49.9706 18 54 22.0294 54 27C54 31.9706 49.9706 36 45 36C40.0294 36 36 31.9706 36 27C36 31.9706 31.9706 36 27 36C22.0294 36 18 31.9706 18 27ZM9 36C4.02944 36 0 31.9706 0 27C0 22.0294 4.02944 18 9 18C13.9706 18 18 22.0294 18 27C18 31.9706 13.9706 36 9 36ZM18 45C18 49.9706 13.9706 54 9 54C4.02944 54 0 49.9706 0 45C0 40.0294 4.02944 36 9 36C13.9706 36 18 40.0294 18 45ZM18 45C18 49.9706 22.0294 54 27 54C31.9706 54 36 49.9706 36 45C36 40.0294 31.9706 36 27 36C22.0294 36 18 40.0294 18 45ZM54 9C54 13.9706 58.0294 18 63 18C67.9706 18 72 13.9706 72 9C72 4.02944 67.9706 0 63 0C58.0294 0 54 4.02944 54 9Z" fill="url(#paint0_linear)"/>
<path d="M99.7144 54C94.4337 54 90.2091 52.536 87.0407 49.608C83.9203 46.68 82.264 42.624 82.072 37.44L82 34.56L82.072 31.68C82.264 26.496 83.9203 22.44 87.0407 19.512C90.2091 16.584 94.4337 15.12 99.7144 15.12C103.507 15.12 106.699 15.792 109.292 17.136C111.932 18.48 113.876 20.136 115.125 22.104C116.421 24.024 117.117 25.872 117.213 27.648C117.261 28.128 117.093 28.536 116.709 28.872C116.373 29.208 115.965 29.376 115.485 29.376H109.076C108.548 29.376 108.164 29.28 107.924 29.088C107.684 28.848 107.443 28.44 107.203 27.864C106.483 26.04 105.523 24.72 104.323 23.904C103.171 23.088 101.683 22.68 99.8584 22.68C97.4101 22.68 95.4898 23.448 94.0977 24.984C92.7535 26.52 92.0334 28.872 91.9374 32.04L91.8654 34.704L91.9374 37.08C92.2254 43.32 94.8658 46.44 99.8584 46.44C101.731 46.44 103.243 46.056 104.395 45.288C105.547 44.472 106.483 43.128 107.203 41.256C107.395 40.728 107.612 40.344 107.852 40.104C108.14 39.864 108.548 39.744 109.076 39.744H115.485C115.965 39.744 116.373 39.912 116.709 40.248C117.093 40.584 117.261 40.992 117.213 41.472C117.117 43.152 116.445 44.976 115.197 46.944C113.948 48.864 112.028 50.52 109.436 51.912C106.843 53.304 103.603 54 99.7144 54Z" fill="white"/>
<path d="M141.355 54C135.69 54 131.322 52.56 128.249 49.68C125.177 46.8 123.521 42.816 123.281 37.728L123.209 34.56L123.281 31.392C123.521 26.352 125.201 22.392 128.321 19.512C131.442 16.584 135.786 15.12 141.355 15.12C146.876 15.12 151.197 16.584 154.317 19.512C157.437 22.392 159.118 26.352 159.358 31.392C159.406 31.968 159.43 33.024 159.43 34.56C159.43 36.096 159.406 37.152 159.358 37.728C159.118 42.816 157.461 46.8 154.389 49.68C151.317 52.56 146.972 54 141.355 54ZM141.355 46.728C143.9 46.728 145.844 45.936 147.188 44.352C148.58 42.768 149.324 40.44 149.42 37.368C149.468 36.888 149.492 35.952 149.492 34.56C149.492 33.168 149.468 32.232 149.42 31.752C149.324 28.68 148.58 26.352 147.188 24.768C145.796 23.136 143.852 22.32 141.355 22.32C138.811 22.32 136.843 23.136 135.45 24.768C134.058 26.352 133.314 28.68 133.218 31.752L133.146 34.56L133.218 37.368C133.314 40.44 134.058 42.768 135.45 44.352C136.843 45.936 138.811 46.728 141.355 46.728Z" fill="white"/>
<path d="M168.847 9.72C168.367 9.72 167.959 9.552 167.623 9.216C167.286 8.88 167.118 8.472 167.118 7.992V2.736C167.118 2.208 167.286 1.776 167.623 1.44C167.959 1.104 168.367 0.935997 168.847 0.935997H175.472C176 0.935997 176.432 1.104 176.768 1.44C177.104 1.776 177.272 2.208 177.272 2.736V7.992C177.272 8.472 177.08 8.88 176.696 9.216C176.36 9.552 175.952 9.72 175.472 9.72H168.847ZM169.135 53.28C168.655 53.28 168.247 53.112 167.911 52.776C167.575 52.44 167.407 52.032 167.407 51.552V17.568C167.407 17.04 167.575 16.632 167.911 16.344C168.247 16.008 168.655 15.84 169.135 15.84H175.256C175.736 15.84 176.144 16.008 176.48 16.344C176.816 16.68 176.984 17.088 176.984 17.568V51.552C176.984 52.032 176.816 52.44 176.48 52.776C176.144 53.112 175.736 53.28 175.256 53.28H169.135Z" fill="white"/>
<path d="M188.192 53.28C187.712 53.28 187.304 53.112 186.968 52.776C186.632 52.44 186.464 52.032 186.464 51.552V17.568C186.464 17.04 186.632 16.632 186.968 16.344C187.304 16.008 187.712 15.84 188.192 15.84H194.169C194.697 15.84 195.105 16.008 195.393 16.344C195.729 16.632 195.897 17.04 195.897 17.568V20.52C198.825 16.92 202.834 15.12 207.923 15.12C212.339 15.12 215.844 16.56 218.436 19.44C221.029 22.32 222.325 26.28 222.325 31.32V51.552C222.325 52.032 222.157 52.44 221.821 52.776C221.533 53.112 221.125 53.28 220.596 53.28H214.116C213.636 53.28 213.227 53.112 212.891 52.776C212.555 52.44 212.387 52.032 212.387 51.552V31.752C212.387 28.968 211.691 26.808 210.299 25.272C208.955 23.688 207.011 22.896 204.466 22.896C202.018 22.896 200.05 23.688 198.561 25.272C197.073 26.856 196.329 29.016 196.329 31.752V51.552C196.329 52.032 196.161 52.44 195.825 52.776C195.537 53.112 195.129 53.28 194.601 53.28H188.192Z" fill="white"/>
<path d="M236.738 53.28C236.258 53.28 235.85 53.112 235.514 52.776C235.178 52.44 235.01 52.032 235.01 51.552V23.544H229.177C228.697 23.544 228.289 23.376 227.953 23.04C227.617 22.704 227.449 22.296 227.449 21.816V17.568C227.449 17.088 227.617 16.68 227.953 16.344C228.289 16.008 228.697 15.84 229.177 15.84H235.01V12.96C235.01 8.592 236.186 5.352 238.539 3.24C240.891 1.08 244.444 0 249.196 0H253.517C254.045 0 254.453 0.167999 254.741 0.503998C255.077 0.791997 255.245 1.2 255.245 1.728V5.976C255.245 6.456 255.077 6.864 254.741 7.2C254.405 7.536 253.997 7.704 253.517 7.704H249.556C247.684 7.704 246.364 8.16 245.596 9.072C244.828 9.984 244.444 11.4 244.444 13.32V15.84H259.206V1.728C259.206 1.248 259.374 0.839999 259.71 0.503998C260.046 0.167999 260.454 0 260.934 0H266.911C267.439 0 267.847 0.167999 268.135 0.503998C268.471 0.791997 268.639 1.2 268.639 1.728V51.552C268.639 52.032 268.471 52.44 268.135 52.776C267.847 53.112 267.439 53.28 266.911 53.28H260.934C260.454 53.28 260.046 53.112 259.71 52.776C259.374 52.44 259.206 52.032 259.206 51.552V23.544H244.444V51.552C244.444 52.032 244.276 52.44 243.939 52.776C243.651 53.112 243.243 53.28 242.715 53.28H236.738Z" fill="white"/>
<path d="M294.868 54C289.204 54 284.835 52.56 281.763 49.68C278.69 46.8 277.034 42.816 276.794 37.728L276.722 34.56L276.794 31.392C277.034 26.352 278.714 22.392 281.835 19.512C284.955 16.584 289.3 15.12 294.868 15.12C300.389 15.12 304.71 16.584 307.83 19.512C310.951 22.392 312.631 26.352 312.871 31.392C312.919 31.968 312.943 33.024 312.943 34.56C312.943 36.096 312.919 37.152 312.871 37.728C312.631 42.816 310.975 46.8 307.902 49.68C304.83 52.56 300.485 54 294.868 54ZM294.868 46.728C297.413 46.728 299.357 45.936 300.701 44.352C302.093 42.768 302.838 40.44 302.934 37.368C302.982 36.888 303.006 35.952 303.006 34.56C303.006 33.168 302.982 32.232 302.934 31.752C302.838 28.68 302.093 26.352 300.701 24.768C299.309 23.136 297.365 22.32 294.868 22.32C292.324 22.32 290.356 23.136 288.964 24.768C287.571 26.352 286.827 28.68 286.731 31.752L286.659 34.56L286.731 37.368C286.827 40.44 287.571 42.768 288.964 44.352C290.356 45.936 292.324 46.728 294.868 46.728Z" fill="white"/>
<path d="M330.09 53.28C328.89 53.28 328.098 52.68 327.714 51.48L317.417 18.072C317.369 17.928 317.345 17.712 317.345 17.424C317.345 16.992 317.489 16.632 317.777 16.344C318.065 16.008 318.425 15.84 318.857 15.84H324.329C324.81 15.84 325.218 15.984 325.554 16.272C325.938 16.56 326.178 16.872 326.274 17.208L333.259 40.896L340.676 17.424C340.82 16.992 341.06 16.632 341.396 16.344C341.78 16.008 342.26 15.84 342.836 15.84H346.509C347.085 15.84 347.541 16.008 347.877 16.344C348.261 16.632 348.501 16.992 348.597 17.424L356.086 40.896L363.071 17.208C363.167 16.872 363.383 16.56 363.719 16.272C364.055 15.984 364.487 15.84 365.015 15.84H370.416C370.848 15.84 371.208 16.008 371.496 16.344C371.832 16.632 372 16.992 372 17.424L371.856 18.072L361.559 51.48C361.367 52.056 361.078 52.512 360.694 52.848C360.358 53.136 359.878 53.28 359.254 53.28H354.502C353.253 53.28 352.461 52.68 352.125 51.48L344.708 28.872L337.219 51.48C336.835 52.68 336.019 53.28 334.771 53.28H330.09Z" fill="white"/>
<defs>
<linearGradient id="paint0_linear" x1="72" y1="27" x2="1.3411e-07" y2="27" gradientUnits="userSpaceOnUse">
<stop stop-color="#B4ED50"/>
<stop offset="0.522293" stop-color="#53A0FE"/>
<stop offset="1" stop-color="#3023AE"/>
</linearGradient>
</defs>
</svg>
